ply 
format ascii 1.0 
element vertex 29
property float32 bt2 
property float32 radius 
property float32 x 
property float32 y 
property float32 z 
element edge 15
property int32 vertex1 
property int32 vertex2 
element face 4
property list uint8 int32 vertex_indices 
end_header 
0 0 10 10 10
0 0 10 9 10
0 0 11 10 10
0 0 20 10 10
0 0 20 9 10
0 0 21 10 10
0 0 10 10 9
0 0 10 10 8
0 0 10 10 7
0 0 10 10 2
0 0 20 10 9
0 0 20 10 6
0 0 20 10 2
0 0 10 9 10
0 0 10 6 10
0 0 10 1 10
0 0 21 10 10
0 0 23 10 10
0 0 27 10 10
0 0 10 0 0
0 0 10 1 0
0 0 10 0 1
0 0 10 8 10
0 0 12 8 10
0 0 15 8 10
0 0 18 8 10
0 0 20 8 10
0 0 9 10 10
0 0 20 11 10
6 7 
7 8 
8 9 
10 11 
11 12 
13 14 
14 15 
16 17 
17 18 
19 20 
20 21 
22 23 
23 24 
24 25 
25 26 
3 0 1 2 
3 3 4 5 
3 0 1 27 
3 3 5 28 
